<svg width="25" height="26" viewBox="0 0 25 26" fill="none" xmlns="http://www.w3.org/2000/svg">
<g id="Setting">
<path id="Path_33946" fill-rule="evenodd" clip-rule="evenodd" d="M23.0083 7.52946L22.2303 6.17934C21.572 5.03694 20.1134 4.64284 18.9694 5.29834V5.29834C18.4248 5.61912 17.7751 5.71013 17.1634 5.5513C16.5516 5.39247 16.0282 4.99684 15.7085 4.45165C15.5029 4.10513 15.3923 3.71043 15.3882 3.30749V3.30749C15.4067 2.66147 15.163 2.03544 14.7125 1.57203C14.262 1.10861 13.6431 0.847268 12.9969 0.847534H11.4293C10.7962 0.847527 10.1891 1.09983 9.74247 1.54862C9.29583 1.99741 9.04644 2.60568 9.04948 3.23884V3.23884C9.03072 4.5461 7.96557 5.59595 6.65818 5.59582C6.25523 5.59163 5.86054 5.48112 5.51401 5.27545V5.27545C4.37005 4.61996 2.91136 5.01406 2.25314 6.15646L1.4179 7.52946C0.760482 8.67043 1.14922 10.1282 2.28747 10.7903V10.7903C3.02735 11.2175 3.48313 12.0069 3.48313 12.8613C3.48313 13.7156 3.02735 14.505 2.28747 14.9322V14.9322C1.15067 15.5899 0.761503 17.0441 1.4179 18.1816V18.1816L2.20738 19.5432C2.51578 20.0997 3.03322 20.5103 3.64521 20.6842C4.2572 20.8582 4.91327 20.7811 5.46825 20.47V20.47C6.01382 20.1516 6.66396 20.0644 7.27414 20.2277C7.88433 20.391 8.40401 20.7912 8.71767 21.3395C8.92334 21.6861 9.03386 22.0807 9.03804 22.4837V22.4837C9.03804 23.8044 10.1087 24.875 11.4293 24.875H12.9969C14.3131 24.875 15.3819 23.8113 15.3882 22.4951V22.4951C15.3851 21.86 15.6361 21.25 16.0852 20.8008C16.5343 20.3517 17.1443 20.1008 17.7795 20.1038C18.1814 20.1146 18.5745 20.2246 18.9236 20.4242V20.4242C20.0646 21.0816 21.5224 20.6929 22.1845 19.5546V19.5546L23.0083 18.1816C23.3272 17.6343 23.4147 16.9825 23.2515 16.3704C23.0883 15.7584 22.6878 15.2366 22.1387 14.9208V14.9208C21.5897 14.6049 21.1892 14.0832 21.026 13.4711C20.8628 12.8591 20.9503 12.2072 21.2692 11.6599C21.4765 11.2979 21.7767 10.9977 22.1387 10.7903V10.7903C23.2702 10.1286 23.658 8.67931 23.0083 7.5409V7.5409V7.52946Z" stroke="white" stroke-width="1.5" stroke-linecap="round" stroke-linejoin="round"/>
<circle id="Ellipse_737" opacity="0.4" cx="12.2188" cy="12.8613" r="3.29519" stroke="white" stroke-width="1.5" stroke-linecap="round" stroke-linejoin="round"/>
</g>
</svg>
